<svg class="icon" viewBox="0 0 1024 1024" xmlns="http://www.w3.org/2000/svg" width="128" height="128"><defs><style/></defs><path d="M895.997 474.622a319.999 319.999 0 0 0-327.68 543.486 51.968 51.968 0 0 1-53.759-7.168l-72.96-58.112-65.343 58.112a50.432 50.432 0 0 1-33.664 12.416 50.112 50.112 0 0 1-33.344-12.288l-65.216-58.112-65.984 58.624a50.816 50.816 0 0 1-33.6 12.416 49.92 49.92 0 0 1-33.407-12.288l-76.544-68.096a36.608 36.608 0 0 1-6.272-7.04A67.328 67.328 0 0 1 0 882.75V51.392C0 23.04 23.04 0 50.752 0h794.493c28.032 0 50.752 22.848 50.752 51.392v423.23zM102.4 429.502c0 13.504 11.2 25.216 24.96 25.216h231.679c14.272 0 24.96-11.264 24.96-25.216a25.408 25.408 0 0 0-24.96-25.28h-231.68a24.832 24.832 0 0 0-24.96 25.28zm0 202.048c0 13.568 11.008 25.28 24.64 25.28h181.119a24.96 24.96 0 0 0 24.64-25.28 25.216 25.216 0 0 0-24.64-25.216h-181.12a24.96 24.96 0 0 0-24.64 25.216zm0-429.439c0 13.568 11.264 25.28 25.216 25.28h333.566c14.08 0 25.216-11.328 25.216-25.28a25.472 25.472 0 0 0-25.216-25.28H127.616a25.088 25.088 0 0 0-25.216 25.28zm665.597 821.885a255.999 255.999 0 1 1 0-511.998 255.999 255.999 0 0 1 0 511.998zM756.99 862.205v60.8h21.824v-60.8h68.224v16.768h21.184V734.78h-89.344v-29.888h-21.76v29.888h-88.576v145.09h21.248v-17.664h67.264zm-67.264-54.144h67.264v34.432h-67.264V808.06zm89.088 34.432V808.06h68.224v34.432h-68.224zm68.224-53.568h-68.224v-34.368h68.224v34.368zm-90.048-34.368v34.368h-67.264v-34.368h67.264zm135.808-84.096h-114.88c-3.008-9.6-5.76-17.92-8.768-25.407l-23.04 3.84c3.328 6.656 6.4 13.824 9.408 21.567h-115.52v53.888h21.249v-34.432h210.367v32.896h21.184v-52.352z"/></svg>