<svg class="icon" viewBox="0 0 1024 1024" xmlns="http://www.w3.org/2000/svg" width="128" height="128"><defs><style/></defs><path d="M756.718 533.814c114.073 0 213.758 101.504 213.758 218.008 0 116.275-99.634 217.855-213.758 217.855-114.176 0-213.76-101.58-213.76-217.855 0-116.479 99.584-218.008 213.76-218.008zm0-54.092c-150.17 0-266.828 118.937-266.828 272.126 0 153.087 116.659 272.126 266.828 272.126 150.22 0 266.878-119.039 266.878-272.126 0-153.24-116.658-272.126-266.878-272.126z"/><path d="M411.504 989.543H143.806C68.8 989.543 9.97 932.609 9.97 856.116V146.693a136.447 136.447 0 0 1 38.784-96.946 131.2 131.2 0 0 1 95.052-39.603H732.68c75.008 0 130.688 60.057 130.688 136.524v163.71c0 16.359-7.527 27.367-23.68 27.367-15.975-.051-23.552-11.008-23.552-27.392v-163.66c0-43.775-40.627-88.37-83.456-88.37H143.806c-42.88 0-86.604 44.595-86.604 88.37v709.449c0 43.776 43.724 85.12 86.604 85.12h267.698c16.025 0 26.777 7.628 26.777 24.114 0 16.41-10.752 24.192-26.777 24.192z"/><path d="M411.504 999.68H143.806C61.861 999.68.012 937.908.012 856.116V146.693a146.508 146.508 0 0 1 41.65-104.191A140.85 140.85 0 0 1 143.807.006H732.68c80.18 0 140.62 63.053 140.62 146.662v163.71c0 23.092-12.85 37.479-33.612 37.479-20.634 0-33.51-14.387-33.51-37.478V146.668c0-38.733-37.043-78.233-73.472-78.233H143.781c-37.197 0-76.672 40.242-76.672 78.233v709.448c0 37.197 38.733 75.008 76.672 75.008h267.697c22.656 0 36.71 13.132 36.71 34.227 0 21.12-14.08 34.304-36.71 34.304zM143.806 20.281A121.42 121.42 0 0 0 55.794 56.89a126.284 126.284 0 0 0-35.891 89.804v709.449c0 70.297 53.273 123.186 123.903 123.186h267.698c16.844 0 16.844-9.728 16.844-13.9 0-4.199 0-14.03-16.844-14.03H143.806c-49.664 0-96.537-46.258-96.537-95.205V146.668c0-49.74 47.795-98.483 96.512-98.483h588.924c47.104 0 93.388 48.742 93.388 98.483v163.71c0 17.23 9.549 17.23 13.62 17.23 4.147 0 13.746 0 13.746-17.23v-163.71c0-72.064-51.89-126.387-120.754-126.387H143.806z"/><path d="M625.62 279.89H250.89c-16.076 0-25.267-7.783-25.267-24.039 0-16.384 9.14-24.14 25.216-24.14h374.756c16.077 0 25.19 7.756 25.19 24.14.052 16.256-9.062 24.038-25.19 24.038zM577.597 443.6h-326.68c-16.077 0-25.267-7.73-25.267-24.115 0-16.256 9.139-24.064 25.216-24.064h326.73c16.077 0 25.216 7.808 25.216 24.064.052 16.384-9.088 24.115-25.215 24.115z"/><path d="M577.596 453.789h-326.68c-22.016 0-35.149-12.8-35.149-34.253 0-21.401 13.159-34.175 35.149-34.175h326.73c21.991 0 35.15 12.825 35.15 34.175.05 10.42-2.945 18.74-8.884 24.807-6.144 6.22-15.027 9.446-26.316 9.446z"/><path d="M250.89 405.585c-12.697 0-15.257 5.273-15.257 13.9 0 8.602 2.509 13.978 15.283 13.978h326.73c3.994 0 9.37-.666 12.237-3.456 2.048-2.048 3.021-5.581 2.996-10.445 0-8.704-2.51-13.977-15.232-13.977H250.916zm182.68 239.281H250.917c-22.016 0-35.149-12.774-35.149-34.252 0-21.402 13.159-34.176 35.149-34.176h182.706c22.016 0 35.149 12.825 35.149 34.176.05 10.419-2.919 18.739-8.884 24.832-6.144 6.195-15.027 9.42-26.316 9.42zm192.05-354.84H250.89c-22.016 0-35.148-12.825-35.148-34.175 0-21.504 13.158-34.253 35.148-34.253h374.73c22.017 0 35.15 12.775 35.15 34.253.05 10.42-2.919 18.637-8.884 24.73-6.144 6.246-15.027 9.446-26.29 9.446z"/><path d="M250.89 241.925c-12.697 0-15.257 5.222-15.257 13.875 0 8.627 2.56 13.9 15.283 13.9h374.73c3.994 0 9.37-.588 12.263-3.481 1.997-2.1 3.02-5.58 2.97-10.42 0-8.652-2.51-13.9-15.233-13.9h-374.73zm416.151 395.85h71.347c-5.478-11.11-3.072-18.355 7.091-21.76 12.928-5.555 22.426 1.69 28.57 21.76h73.343c15.667 0 23.45 7.245 23.45 21.837 0 11.11-1.024 20.07-3.047 27.008-2.713 11.776-8.473 17.33-17.305 16.64a24.217 24.217 0 0 1 3.02 12.492v97.638c0 14.592-7.833 21.837-23.423 21.837h-59.059v17.612c-.666 7.63-5.76 11.776-15.258 12.468-10.188 0-15.283-3.815-15.283-11.392v-18.688h-59.084c-16.333 0-24.115-6.963-23.424-20.813V706.357c-11.571 1.357-16.998-3.789-16.333-15.565v-28.057c-.768-16.64 7.731-24.96 25.395-24.96zm168.191 29.107H674.21c-2.048.691-3.072 1.715-3.072 3.098v18.688h69.3v-6.221c0-7.578 5.12-11.725 15.282-12.467 9.498.742 14.592 4.89 15.258 12.467v6.22h65.254a76.652 76.652 0 0 0 4.07-16.588 6.605 6.605 0 0 0-5.094-5.197zm-146.79 77.926h51.994v-25.933H691.54c-2.048.692-3.072 1.716-3.072 3.072v22.861zm3.073 60.262h48.921v-31.18h-51.968v28.057c0 2.15.999 3.123 3.072 3.123zm130.457-60.262v-22.86a6.656 6.656 0 0 0-3.047-3.073h-47.897v25.933h50.944zm-50.944 29.133v31.18h48.896c2.048 0 3.072-1.024 3.072-3.072v-28.057h-51.968v-.051z"/></svg>