<svg class="icon" viewBox="0 0 1026 1024" xmlns="http://www.w3.org/2000/svg" width="128.25" height="128"><defs><style/></defs><path d="M984.436 311.855c-25.6-60.51-62.836-116.364-109.381-162.91l-6.982-6.981C772.655 51.2 644.655 0 512 0 374.69 0 246.69 53.527 148.945 148.945v2.328C53.527 249.018 0 377.018 0 512c0 55.855 9.31 107.055 25.6 158.255 16.29 46.545 37.236 90.763 65.164 132.654l4.654 4.655v195.49c0 9.31 9.31 18.619 18.618 18.619H512c69.818 0 134.982-13.964 200.145-39.564 60.51-25.6 116.364-62.836 162.91-109.382l6.981-6.982c93.091-95.418 144.291-221.09 144.291-356.072-2.327-67.491-16.29-132.655-41.89-197.818zm-288.581 281.6L512 770.327c-2.327 2.328-6.982 4.655-11.636 4.655s-6.982-2.327-11.637-4.655L307.2 595.782l-2.327-2.327c-44.218-44.219-55.855-100.073-34.91-153.6 23.273-58.182 81.455-97.746 141.964-97.746 27.928 0 55.855 9.31 81.455 25.6l4.654 2.327 4.655-2.327c25.6-16.29 53.527-25.6 81.454-25.6 60.51 0 118.691 39.564 141.964 97.746 25.6 53.527 13.964 109.381-30.254 153.6z"/></svg>