<svg class="icon" viewBox="0 0 1024 1024" xmlns="http://www.w3.org/2000/svg" width="128" height="128"><defs><style/></defs><path d="M421.547 379.733c36.983-36.403 81.356-54.613 133.12-54.613s95.863 18.21 132.266 54.613c36.984 36.984 55.774 81.357 56.32 133.12v5.974c-1.706 49.476-20.19 91.58-55.466 126.276l-.854.87c-36.403 36.404-80.503 54.597-132.266 54.597s-96.137-18.484-133.12-55.467c-36.404-36.403-54.614-80.504-54.614-132.267 0-51.763 18.21-96.12 54.614-133.103zm133.12-20.48c-42.104 0-78.217 14.797-108.374 44.374l-.853.853c-29.577 30.157-44.373 66.27-44.373 108.373 0 42.667 14.796 78.797 44.373 108.39 30.157 30.175 66.56 45.21 109.227 45.21 42.103 0 78.216-15.07 108.373-45.21 29.013-28.996 44.407-63.692 46.08-104.123v-4.267c-.546-42.666-15.923-79.07-46.08-109.226-29.577-29.577-65.707-44.374-108.373-44.374z"/><path d="M853.333 955.733H256c-65.365 0-101.734-35.993-102.4-101.342V171.52c0-66.884 36.37-103.253 102.4-103.253h597.333A17.067 17.067 0 0 1 870.4 85.333v69.12h68.267a17.067 17.067 0 0 1 17.066 17.067v682.667a17.067 17.067 0 0 1-17.066 17.066H870.4v67.414a17.067 17.067 0 0 1-17.067 17.066zm-665.6-101.632C188.228 900.78 209.29 921.6 256 921.6h580.267V102.4H256c-47.223 0-68.267 21.043-68.267 68.267V854.1zM870.4 837.12h51.2V699.733h-51.2V837.12zm0-171.52h51.2V529.067h-51.2V665.6zm0-170.667h51.2V358.4h-51.2v136.533zm0-170.666h51.2v-135.68h-51.2v135.68z"/><path d="M256 888.32H85.333a34.133 34.133 0 0 1 0-68.267H256a34.133 34.133 0 0 1 0 68.267zm0-171.52H85.333a34.133 34.133 0 0 1 0-68.267H256a34.133 34.133 0 0 1 0 68.267zm0-170.667H85.333a34.133 34.133 0 0 1 0-68.266H256a34.133 34.133 0 0 1 0 68.266zm0-170.666H85.333a34.133 34.133 0 0 1 0-68.267H256a34.133 34.133 0 0 1 0 68.267zm0-169.814H85.333a34.133 34.133 0 0 1 0-68.266H256a34.133 34.133 0 0 1 0 68.266z"/></svg>