<svg class="icon" viewBox="0 0 1024 1024" xmlns="http://www.w3.org/2000/svg" width="128" height="128"><defs><style/></defs><path d="M76.8 964.03V59.391A33.792 33.792 0 0 1 110.592 25.6H913.51a33.792 33.792 0 0 1 33.792 33.792v904.637a33.792 33.792 0 0 1-33.792 33.792H110.592A33.792 33.792 0 0 1 76.8 964.03zm227.779-416.318a33.792 33.792 0 0 0-33.792 33.792v.471a33.792 33.792 0 0 0 33.792 33.792h244.633a33.792 33.792 0 0 0 33.792-33.792v-.471a33.792 33.792 0 0 0-33.792-33.792H304.58zm0-243.635a33.792 33.792 0 0 0-33.792 33.792v.47a33.792 33.792 0 0 0 33.792 33.793h397.85a33.792 33.792 0 0 0 33.791-33.792v-.471a33.792 33.792 0 0 0-33.792-33.792h-397.85z"/></svg>