<svg class="icon" viewBox="0 0 1024 1024" xmlns="http://www.w3.org/2000/svg" width="128" height="128"><defs><style/></defs><path d="M512.002 4.582c187.817 0 340.08 152.254 340.08 340.08 0 4.334-.113 8.66-.27 12.95h-75.055c.21-4.29.314-8.608.314-12.95 0-146.402-118.677-265.079-265.069-265.079-146.401 0-265.082 118.677-265.082 265.078 0 4.343.114 8.66.318 12.951H172.19a344.096 344.096 0 0 1-.27-12.95c0-187.826 152.257-340.08 340.083-340.08z"/><path d="M63.228 345.071h897.537c14.748.776 25.554 8.948 25.317 25.309l-.13 556.384c-.01 50.967-41.696 92.653-92.654 92.653H130.694c-50.953 0-92.644-41.686-92.653-92.653l-.127-556.384c.066-16.552 11.342-25.326 25.314-25.309zm383.666 522.407h130.202L547.654 689.97v-.018c37.484-14.337 64.1-50.652 64.1-93.175 0-55.101-44.667-99.758-99.75-99.758-55.1 0-99.762 44.657-99.762 99.758 0 42.523 26.612 78.838 64.09 93.175v.018l-29.438 177.51z"/></svg>