<svg class="icon" viewBox="0 0 1024 1024" xmlns="http://www.w3.org/2000/svg" width="200" height="200"><defs><style/></defs><path d="M593.92 838.513v-95.355a40.96 40.96 0 1 1 81.92 0v95.355c0 45.26-35.226 83.087-80.22 83.087H203.1c-44.994 0-80.22-37.827-80.22-83.087V185.487c0-45.26 35.226-83.087 80.22-83.087h392.52c44.994 0 80.22 37.827 80.22 83.087v193.946a40.96 40.96 0 1 1-81.92 0V185.487c0-1.024.061-1.147.901-1.167H203.9c.84 0 .901.164.901 1.167v653.026c0 1.024-.061 1.147-.901 1.167h390.92c-.84 0-.901-.164-.901-1.167z"/><path d="M471.04 512h327.68q40.96 0 40.96 40.96t-40.96 40.96H471.04q-40.96 0-40.96-40.96T471.04 512z"/><path d="M811.199 422.828L912.57 524.2q28.963 28.963 0 57.926t-57.926 0l-101.37-101.37q-28.964-28.964 0-57.927 28.962-28.963 57.925 0z"/><path d="M753.273 625.575l101.37-101.37q28.964-28.964 57.927 0 28.963 28.962 0 57.925L811.2 683.501q-28.964 28.963-57.927 0t0-57.926z"/></svg>