<svg class="icon" viewBox="0 0 1024 1024" xmlns="http://www.w3.org/2000/svg" width="128" height="128"><defs><style/></defs><path d="M610.88 339.2a25.28 25.28 0 0 0 0 50.56h198.08a25.28 25.28 0 0 0 0-50.56zm49.92 149.76a24.32 24.32 0 0 0-24.96 24.96 24.32 24.32 0 0 0 24.96 25.28h148.16a24.32 24.32 0 0 0 24.96-25.28 24.32 24.32 0 0 0-24.96-24.96zm0 151.04a25.28 25.28 0 0 0 0 50.56h148.16a25.28 25.28 0 0 0 0-50.56z"/><path d="M841.92 128H180.16A124.16 124.16 0 0 0 64 257.92v508.16A124.48 124.48 0 0 0 182.08 896h659.84A124.16 124.16 0 0 0 960 766.08V257.92A128 128 0 0 0 841.92 128zM896 759.04A69.76 69.76 0 0 1 832 832H193.6a69.76 69.76 0 0 1-64-72.96V264.96a69.76 69.76 0 0 1 64-72.96H832a69.76 69.76 0 0 1 64 72.96z"/><path d="M437.44 533.76a122.56 122.56 0 0 0 51.84-100.8 125.12 125.12 0 1 0-198.08 100.8 156.16 156.16 0 0 0-101.76 160v25.28H537.6v-25.28a153.28 153.28 0 0 0-100.16-160zM291.2 432.96a75.2 75.2 0 1 1 74.88 75.84 75.84 75.84 0 0 1-74.88-75.84zM242.88 672c10.88-84.48 80.32-96 123.2-96s110.72 12.8 123.2 96z"/></svg>