<svg class="icon" viewBox="0 0 1024 1024" xmlns="http://www.w3.org/2000/svg" width="128" height="128"><defs><style/></defs><path d="M512.001 512.006c70.685 0 131.017-25.009 181.01-75.005 50-49.997 75.004-110.328 75.004-181.004 0-70.664-25.004-130.998-75.003-181.006C643.002 24.997 582.668 0 512.002 0s-131.01 24.997-181.005 74.991c-50.003 50.008-75.005 110.34-75.005 181.006 0 70.676 25.002 131.007 75.005 181.004 50.009 49.996 110.335 75.005 181.004 75.005z"/><path d="M979 782.336c-1.56-22.438-4.674-46.667-9.333-72.67-4.667-26.004-10.564-50.104-17.676-72.336-7.113-22.216-16.67-43.886-28.67-65-11.996-21.111-25.773-39.108-41.338-54.003-15.566-14.89-34.562-26.772-56.99-35.66-22.457-8.884-47.236-13.335-74.35-13.335-3.994 0-13.33 4.778-27.999 14.335-14.655 9.558-31.213 20.227-49.658 32.01-18.442 11.761-42.456 22.437-72 31.978-29.557 9.558-59.22 14.338-89.008 14.338-29.777 0-59.442-4.78-88.995-14.338-29.55-9.54-53.557-20.217-72.002-31.978-18.442-11.783-34.996-22.45-49.66-32.01-14.671-9.557-24-14.335-28-14.335-27.11 0-51.89 4.45-74.333 13.336-22.447 8.887-41.445 20.777-57.004 35.659-15.553 14.895-29.333 32.892-41.328 54.003-11.995 21.114-21.55 42.793-28.663 65-7.11 22.232-13.002 46.332-17.667 72.336-4.67 26.003-7.78 50.216-9.338 72.67-1.556 22.454-2.33 45.454-2.33 69.01 0 53.324 16.226 95.447 48.667 126.338 32.448 30.879 75.563 46.316 129.34 46.316h582.68c53.772 0 96.882-15.437 129.335-46.316 32.46-30.891 48.674-73.007 48.674-126.337-.004-23.557-.78-46.557-2.353-69.011z"/></svg>